<svg width="137" height="24" viewBox="0 0 137 24" fill="none" xmlns="http://www.w3.org/2000/svg">
<g id="Logo--desktop.svg" clip-path="url(#clip0_1_697)">
<g id="Group">
<path id="Vector" fill-rule="evenodd" clip-rule="evenodd" d="M10.5833 18.2695H11.1425C12.2584 18.2695 12.8755 18.2401 13.3751 18.1225C14.2567 17.8874 14.8738 17.094 14.8738 16.1242C14.8738 15.419 14.5505 14.7725 14.0216 14.4198C13.4926 14.126 12.993 14.0084 11.3768 14.0084H10.5833V18.2695ZM10.5833 10.3359H11.7C12.9343 10.3359 12.993 10.3359 13.4926 10.1302C13.7277 10.0412 13.9334 9.92448 14.1097 9.71877C14.4624 9.33674 14.6387 8.80778 14.6387 8.24944C14.6387 6.95642 13.8453 6.30992 12.2878 6.30992H12.1702L11.2886 6.3393L10.5833 6.30992V10.3359ZM0.769821 1.7558L8.29199 1.81457L14.2861 1.7558C16.93 1.7558 18.1937 1.96151 19.6042 2.54924C21.485 3.34186 22.7192 5.16465 22.7192 7.10336C22.7192 8.04373 22.4539 8.95472 21.9552 9.71877C21.1617 10.8934 20.4271 11.3644 18.5169 11.8052C20.8091 12.4223 21.6907 12.9513 22.6311 14.0966C23.2188 14.8027 23.5714 15.89 23.5714 16.9177C23.5714 18.9454 22.2784 20.9135 20.3977 21.7951C18.8402 22.5297 16.8419 22.8824 14.2567 22.8824C13.522 22.8824 11.4062 22.853 7.88058 22.8236C6.2937 22.7942 3.94358 22.8236 0.769821 22.8824V18.0042L2.50363 18.0638V6.54501L0.769821 6.6046V1.7558Z" fill="black"/>
<path id="Vector_2" fill-rule="evenodd" clip-rule="evenodd" d="M33.9037 10.424H35.4016C37.1354 10.424 37.9876 9.71877 37.9876 8.33841C37.9876 7.0454 37.1942 6.39889 35.5192 6.39889H33.9037V10.424ZM24.06 18.0042L25.8232 18.0638V6.54501L24.06 6.6046V1.7558L30.1422 1.81457L37.5175 1.7558C41.0145 1.7558 42.4242 2.07987 44.0699 3.22513C45.5686 4.25366 46.4502 6.04625 46.4502 7.95557C46.4502 8.69024 46.3326 9.45429 46.0388 10.1008C45.5098 11.5105 44.9515 12.0697 43.3058 13.0093L46.3612 18.0638L47.7718 18.0042V22.8824C46.0388 22.853 44.7458 22.8236 43.8642 22.8236C42.9826 22.8236 41.6602 22.853 39.8684 22.8824L36.0481 14.3023H33.8735V18.0638L35.5486 18.0042V22.8824C33.0809 22.853 31.2295 22.8236 29.9953 22.8236C28.6729 22.8236 26.7048 22.853 24.06 22.8824V18.0042Z" fill="black"/>
<path id="Vector_3" fill-rule="evenodd" clip-rule="evenodd" d="M57.1261 12.7162H60.828L59.4468 7.63232L59.1824 6.48624L58.9766 5.39974C58.7122 6.7801 58.6534 7.10336 58.5652 7.45681L57.1261 12.7162ZM48.8978 18.0042L50.5443 18.0638L53.8348 6.54501L52.0716 6.6046V1.7558C55.5392 1.78519 58.095 1.81457 59.8582 1.81457C61.7684 1.81457 64.6181 1.78519 68.4375 1.7558V6.6046L66.6458 6.54501L69.995 18.0638L71.6407 18.0042V22.8824C69.2318 22.853 67.4392 22.8236 66.2343 22.8236C64.9707 22.8236 63.0614 22.853 60.5341 22.8824V18.0042L62.2386 18.0638L61.7684 15.9773H56.2445L55.7155 18.0638L57.4485 18.0042V22.8824C55.5098 22.853 54.0699 22.8236 53.1295 22.8236C52.1598 22.8236 50.7786 22.853 48.8978 22.8824V18.0042Z" fill="black"/>
<path id="Vector_4" fill-rule="evenodd" clip-rule="evenodd" d="M82.5813 18.2695H83.1397C84.2564 18.2695 84.8735 18.2401 85.3731 18.1225C86.2547 17.8874 86.8718 17.094 86.8718 16.1242C86.8718 15.419 86.5485 14.7725 86.0196 14.4198C85.4906 14.126 84.991 14.0084 83.3748 14.0084H82.5813V18.2695ZM82.5813 10.3359H83.698C84.9323 10.3359 84.991 10.3359 85.4906 10.1302C85.7257 10.0412 85.9314 9.92448 86.1069 9.71877C86.4604 9.33674 86.6359 8.80778 86.6359 8.24944C86.6359 6.95642 85.8433 6.30992 84.2858 6.30992H84.1682L83.2866 6.3393L82.5813 6.30992V10.3359ZM72.7678 1.7558L80.2892 1.81457L86.2841 1.7558C88.9289 1.7558 90.1917 1.96151 91.6022 2.54924C93.483 3.34186 94.7164 5.16465 94.7164 7.10336C94.7164 8.04373 94.4519 8.95472 93.9532 9.71877C93.1589 10.8934 92.425 11.3644 90.5149 11.8052C92.8071 12.4223 93.6887 12.9513 94.6282 14.0966C95.2168 14.8027 95.5686 15.89 95.5686 16.9177C95.5686 18.9454 94.2756 20.9135 92.3957 21.7951C90.8374 22.5297 88.8399 22.8824 86.2547 22.8824C85.52 22.8824 83.4042 22.853 79.8786 22.8236C78.2917 22.7942 75.9408 22.8236 72.7678 22.8824V18.0042L74.5008 18.0638V6.54501L72.7678 6.6046V1.7558Z" fill="black"/>
<path id="Vector_5" fill-rule="evenodd" clip-rule="evenodd" d="M96.0038 1.7558C98.4723 1.78519 100.352 1.81457 101.586 1.81457C102.791 1.81457 104.642 1.78519 107.052 1.7558V6.6046L105.612 6.54501V15.419C105.612 16.6532 105.67 17.0646 105.935 17.5054C106.258 18.0638 107.081 18.3576 108.051 18.3576C108.961 18.3576 109.755 18.0344 110.107 17.476C110.402 17.0646 110.46 16.6532 110.46 15.419V6.54501L108.99 6.6046V1.7558C110.784 1.78519 112.105 1.81457 112.987 1.81457C113.839 1.81457 115.043 1.78519 116.66 1.7558V6.6046L115.191 6.54501V14.9194C115.191 17.8287 114.486 19.5331 112.752 21.031C111.048 22.4709 108.844 23.235 106.317 23.235C103.819 23.235 101.616 22.4709 99.9114 21.031C98.207 19.5331 97.5017 17.8287 97.5017 14.9194V6.54501L96.0038 6.6046V1.7558Z" fill="black"/>
<path id="Vector_6" fill-rule="evenodd" clip-rule="evenodd" d="M130.458 1.7558H135.276C135.218 3.66594 135.188 4.57692 135.188 5.60546V7.86741L130.428 7.89762C130.017 6.07483 129.106 5.22343 127.666 5.22343C126.579 5.22343 125.669 5.98748 125.669 6.86908C125.669 7.13275 125.756 7.42661 125.933 7.63232C126.139 7.89762 126.345 8.10332 126.638 8.24944C126.814 8.33842 127.078 8.45515 127.46 8.69024L128.753 9.27797C129.194 9.51307 129.694 9.71877 130.252 10.0126C132.192 10.8934 132.368 10.9824 133.161 11.4526C135.306 12.6868 136.393 14.4198 136.393 16.7708C136.393 20.7078 133.278 23.3232 128.548 23.3232C127.637 23.3232 126.697 23.235 125.816 22.9999C124.611 22.7354 124.081 22.5003 122.936 21.6187V22.8824H118.088C118.117 20.9722 118.176 20.0612 118.176 19.0621C118.176 18.3576 118.176 17.3577 118.117 16.0067H123.025C123.2 16.9471 123.377 17.2997 123.847 17.7985C124.464 18.445 125.434 18.8564 126.403 18.8564C127.314 18.8564 128.048 18.2401 128.048 17.476C128.048 16.6532 127.255 16.0067 124.846 14.9488C124.081 14.597 123.582 14.3619 123.406 14.2729L121.878 13.5097C121.115 13.1276 120.439 12.7742 119.968 12.4223C118.411 11.4526 117.5 9.66 117.5 7.66171C117.5 3.90103 120.408 1.315 124.727 1.315C125.522 1.315 126.315 1.37378 127.138 1.5501C128.46 1.7558 129.018 1.96151 130.458 2.60802V1.7558Z" fill="black"/>
</g>
</g>
<defs>
<clipPath id="clip0_1_697">
<rect width="136" height="23" fill="white" transform="translate(0.5 0.809998)"/>
</clipPath>
</defs>
</svg>
