<?xml version="1.0" standalone="no"?>
<!DOCTYPE svg PUBLIC "-//W3C//DTD SVG 20010904//EN"
 "http://www.w3.org/TR/2001/REC-SVG-20010904/DTD/svg10.dtd">
<svg version="1.0" xmlns="http://www.w3.org/2000/svg"
 width="3164.000000pt" height="888.000000pt" viewBox="0 0 3164.000000 888.000000"
 preserveAspectRatio="xMidYMid meet">

<g transform="translate(0.000000,888.000000) scale(0.100000,-0.100000)"
fill="#000000" stroke="none">
<path d="M8524 8856 c-62 -27 -93 -103 -94 -224 0 -78 19 -125 73 -180 l42
-42 -17 -63 c-53 -204 -166 -440 -441 -919 -368 -644 -658 -1079 -1197 -1798
-406 -542 -831 -1084 -1135 -1446 -251 -299 -553 -608 -878 -899 -162 -145
-208 -178 -224 -161 -11 11 -7 332 6 526 32 455 92 1034 151 1467 59 422 63
796 10 965 -56 182 -194 235 -381 147 -88 -42 -169 -109 -373 -309 -275 -269
-422 -445 -1046 -1255 -497 -645 -677 -874 -1615 -2060 -434 -549 -728 -900
-843 -1007 -43 -40 -152 -118 -165 -118 -34 0 105 558 309 1245 207 693 616
1831 896 2494 55 130 126 301 158 381 135 336 338 791 412 920 29 50 81 127
117 171 117 145 139 179 150 229 26 121 -67 287 -181 322 -51 15 -112 -9 -182
-73 -85 -78 -154 -197 -385 -664 -158 -319 -409 -914 -659 -1561 -517 -1341
-967 -2835 -1023 -3394 -25 -258 25 -478 133 -575 97 -87 208 -97 345 -31 71
35 96 56 293 255 274 275 372 387 759 871 303 377 532 670 1266 1620 550 712
756 966 1215 1505 315 370 428 495 445 495 8 0 16 -8 20 -19 3 -10 -21 -227
-54 -482 -74 -571 -156 -1267 -172 -1454 -14 -176 -6 -549 14 -661 58 -307
106 -398 252 -470 137 -68 256 -58 396 34 160 105 741 740 1271 1390 195 238
451 561 472 594 15 24 30 23 23 -2 -9 -34 11 -167 32 -207 72 -140 231 -165
393 -62 26 17 104 92 172 168 145 159 168 186 248 304 83 120 96 126 172 76
50 -34 158 -69 296 -96 68 -14 144 -17 387 -18 274 0 304 -2 320 -18 13 -13
19 -41 23 -125 7 -127 32 -185 105 -250 67 -59 125 -75 243 -70 120 6 195 30
495 162 197 87 420 167 431 155 2 -2 8 -40 14 -85 15 -123 60 -198 150 -252
46 -27 50 -27 207 -26 199 1 245 11 451 104 86 39 179 80 205 91 27 10 160 73
296 140 247 120 355 159 444 159 69 0 94 -64 37 -92 -28 -13 -301 -213 -563
-412 -201 -152 -395 -357 -502 -531 -163 -262 -196 -416 -122 -565 87 -173
255 -199 497 -76 179 91 720 631 897 896 35 52 82 136 105 185 78 170 92 195
136 235 25 23 82 59 127 81 l82 40 6 -89 c9 -141 50 -205 147 -231 59 -16 92
-5 284 93 269 138 395 183 803 285 397 98 678 161 725 161 42 0 50 -26 43
-142 -8 -128 10 -189 76 -257 58 -60 104 -76 216 -75 131 1 284 47 570 169
138 58 292 128 343 156 93 49 152 62 169 37 4 -7 10 -45 14 -85 4 -56 12 -83
35 -119 42 -68 86 -88 203 -93 150 -5 165 -1 526 153 146 63 571 206 611 206
46 0 61 -24 69 -110 10 -114 30 -165 89 -226 98 -101 247 -119 446 -54 106 34
257 111 394 200 120 77 141 87 161 70 8 -7 24 -38 36 -70 43 -119 127 -178
266 -187 128 -9 180 8 735 236 108 45 205 81 216 81 25 0 42 -39 42 -95 0
-101 74 -213 164 -250 91 -38 301 -25 494 31 48 14 197 77 331 141 135 63 261
122 280 130 20 9 110 49 201 90 90 42 180 78 200 80 20 3 55 -3 80 -12 95 -35
200 -63 320 -85 121 -22 124 -23 100 -39 -120 -78 -194 -235 -170 -361 5 -28
14 -58 19 -68 16 -29 74 -80 104 -91 83 -32 233 12 395 116 79 51 197 104 417
188 231 88 324 118 570 184 208 56 617 146 707 157 74 9 79 -2 50 -115 -30
-121 -35 -169 -22 -226 32 -142 155 -212 354 -203 136 7 254 46 460 154 596
311 860 419 922 376 5 -4 31 -50 56 -102 160 -329 496 -427 1078 -315 69 13
195 36 280 50 85 14 225 43 311 65 185 46 728 198 882 246 60 19 125 34 144
34 l36 0 -9 -47 c-15 -85 -10 -204 10 -243 62 -118 178 -163 315 -121 61 18
82 31 140 86 84 80 244 265 353 410 77 102 86 110 120 113 25 2 54 -6 90 -24
72 -37 175 -71 272 -90 65 -13 161 -17 481 -19 220 -2 440 -8 490 -14 97 -11
212 -1 274 25 131 55 187 202 127 329 -26 56 -86 118 -129 134 -42 16 -271 13
-441 -6 -198 -21 -725 -25 -803 -5 -62 16 -126 60 -146 99 -8 16 -17 51 -21
78 -16 115 -53 180 -119 204 -58 22 -135 5 -185 -42 -13 -12 -55 -85 -92 -162
-81 -164 -151 -281 -210 -348 l-42 -48 -22 64 c-12 35 -29 76 -39 91 -29 43
-90 66 -177 65 -160 0 -304 -31 -775 -169 -486 -142 -921 -254 -1105 -284
-192 -32 -456 -47 -417 -25 9 6 36 12 60 15 180 21 286 124 295 285 8 131 -62
245 -173 282 -125 43 -395 47 -550 7 -44 -11 -120 -40 -170 -64 -72 -35 -105
-45 -164 -50 -225 -19 -398 -81 -808 -287 -335 -169 -467 -228 -480 -215 -10
10 69 176 150 315 40 68 115 180 167 250 107 143 602 746 634 774 55 47 95 59
175 53 42 -3 177 -10 301 -15 124 -6 271 -17 327 -25 57 -9 122 -16 145 -16
24 0 165 -15 313 -34 311 -39 338 -47 385 -124 64 -104 101 -132 177 -132 84
1 181 78 204 162 26 97 -32 272 -115 345 -99 87 -319 176 -531 214 -107 20
-168 23 -544 28 l-425 6 35 40 c65 77 345 381 515 561 146 155 173 188 185
230 49 172 -64 335 -203 295 -97 -28 -157 -83 -380 -348 -57 -68 -177 -203
-268 -301 -91 -98 -218 -239 -284 -313 -65 -73 -132 -142 -149 -151 -21 -12
-53 -18 -97 -18 -36 0 -153 -4 -260 -10 -107 -5 -341 -17 -520 -25 -854 -41
-1349 -106 -1865 -245 -275 -74 -372 -108 -394 -136 -71 -90 -23 -224 80 -224
21 0 103 16 181 35 79 19 205 46 280 60 415 76 1595 160 2050 146 l196 -6
-114 -148 c-167 -217 -372 -499 -447 -614 l-65 -101 -183 -5 c-174 -4 -192 -6
-344 -45 -183 -46 -1070 -300 -1159 -331 -33 -12 -67 -19 -75 -16 -9 3 -27 21
-40 40 -13 20 -37 46 -52 59 -45 38 -170 74 -353 101 -324 49 -356 58 -483
143 -119 79 -230 50 -688 -176 -331 -164 -441 -212 -563 -245 l-87 -24 0 101
c0 82 -4 110 -21 146 -26 56 -67 98 -119 121 -35 15 -71 23 -211 45 -18 2 -51
20 -75 39 -84 67 -289 117 -484 117 -207 0 -395 -41 -690 -149 -172 -64 -271
-111 -550 -267 -231 -129 -298 -161 -318 -153 -10 4 -16 31 -20 91 -13 164
-73 261 -178 286 -31 8 -110 13 -184 13 -210 0 -361 -40 -700 -186 -171 -73
-189 -79 -209 -64 -9 7 -23 46 -32 87 -25 125 -77 176 -203 200 -75 14 -140
13 -229 -6 -93 -19 -170 -48 -642 -243 -201 -82 -366 -146 -368 -142 -2 5 9
54 23 109 40 159 31 221 -39 278 -70 58 -231 90 -370 75 -101 -12 -167 -28
-501 -126 -143 -42 -314 -92 -380 -112 -66 -19 -138 -40 -159 -46 -38 -12 -39
-11 -70 28 -71 91 -149 164 -199 186 -44 20 -68 23 -152 23 -182 -1 -420 -70
-682 -199 -83 -41 -161 -75 -173 -75 -35 0 -58 18 -99 78 -110 163 -251 241
-411 229 -139 -10 -231 -46 -640 -247 -367 -181 -433 -208 -543 -229 l-49 -9
4 42 c3 22 1 74 -3 114 -17 153 -99 224 -288 250 -52 8 -85 20 -134 49 -195
118 -471 141 -857 73 -137 -24 -224 -33 -400 -40 -124 -6 -272 -14 -330 -20
-135 -12 -330 -12 -450 0 -72 8 -110 17 -158 41 -68 33 -92 65 -92 123 0 111
-49 202 -123 231 -42 16 -49 16 -99 1 -30 -8 -64 -26 -75 -38 -12 -13 -57 -91
-99 -173 -109 -213 -162 -301 -214 -353 -43 -44 -45 -45 -48 -22 -2 13 -13 46
-23 72 -35 89 -33 96 114 293 537 726 1059 1531 1397 2155 174 322 271 642
257 844 -21 292 -221 517 -393 442z"/>
<path d="M29561 4706 c-88 -29 -143 -113 -144 -220 -1 -113 51 -209 130 -242
44 -19 174 -18 221 2 49 20 90 60 113 109 35 75 18 225 -32 289 -50 64 -190
94 -288 62z"/>
<path d="M27965 3880 c-60 -4 -346 -8 -635 -9 -289 0 -770 -8 -1070 -16 -300
-8 -801 -19 -1115 -25 -2080 -38 -4593 -119 -6065 -195 -2435 -126 -5194 -367
-7740 -676 -3847 -466 -7088 -1102 -9470 -1856 -399 -126 -864 -331 -959 -423
-133 -130 -97 -293 84 -376 180 -83 775 -110 1415 -65 388 27 853 66 1090 91
102 11 372 36 600 55 559 47 3124 281 4440 405 4483 420 5938 529 9025 675
1367 64 1878 83 3180 117 652 18 3356 18 3900 0 1720 -54 2664 -100 3660 -178
887 -68 1343 -132 1875 -260 291 -70 638 -169 627 -180 -7 -7 -389 -90 -594
-128 -765 -144 -1481 -204 -3703 -311 -404 -19 -944 -47 -1200 -60 -1074 -58
-1221 -65 -1555 -80 -466 -20 -1102 -42 -1580 -55 -534 -14 -594 -17 -640 -32
-55 -18 -85 -65 -85 -135 0 -71 20 -117 62 -140 31 -17 71 -18 638 -17 429 1
688 6 890 18 157 9 546 23 865 31 1317 34 2933 113 4615 225 853 57 1588 142
2137 246 101 19 244 43 319 54 222 33 390 84 496 151 65 42 132 116 153 172
22 59 16 145 -14 204 -26 53 -108 124 -185 162 -252 123 -1573 360 -2621 470
-646 68 -2189 157 -3300 191 -1087 33 -2999 38 -3995 10 -3228 -89 -4871 -157
-7050 -295 -1974 -125 -3300 -236 -6135 -515 -555 -55 -1282 -124 -1615 -155
-871 -80 -1379 -130 -1840 -180 -867 -95 -1324 -131 -1965 -154 -388 -15
-1040 -23 -1125 -14 l-75 8 145 57 c959 374 3155 915 5330 1313 3100 567 8276
1119 12710 1355 1250 66 2240 101 4550 160 1391 36 1982 42 3125 37 1040 -5
1395 -13 1650 -37 61 -6 198 -13 305 -17 190 -5 196 -5 222 16 32 25 51 84 42
129 -7 36 -25 53 -116 115 -96 65 -201 96 -363 108 -172 12 -1200 19 -1340 9z"/>
</g>
</svg>
