<svg version="1.2" xmlns="http://www.w3.org/2000/svg" viewBox="0 0 842 595" width="842" height="595"><style>.a{fill:#231f20}</style><path class="a" d="m584.7 288.8c0.2-0.1 1.4-0.4 3.7-1.1 2.2-0.7 4-1.2 5-1.4 7.7-2.2 9.8-3 15.9-4.5 0 0 2.4-0.7 5.6-1.3 1.1-0.3 1.7-0.3 2.2-0.4 0.9 0 1.2 0 3.7 0 0.8 0 0.8 0 1.1 0 0.2 0 0.6 0 1.2 0 0.4 0 0.6 0 0.8-0.1 0.2-0.1 0.4-0.3 0.5-0.5 0.3-0.5 2.4-3.7 2.8-4.2 0.1-0.2 0.1-0.2 0.8-1.1 3.3-4.5 3.2-4.5 4.6-6.4 1.4-1.9 2.6-3.4 3.6-4.7 1.2-1.6 2.2-2.9 3.1-4-0.7 0-1.9 0-3.3 0-5.3-0.1-5.1-0.1-6.6-0.1-1.7 0-4.4 0-7.6 0.3-0.8 0-1.5 0.1-2.6 0.2-1.6 0.1-2.3 0-4.1 0.1-0.9 0.1-1.5 0.1-2.2 0.2-4.5 0.3-4.7 0.3-7.3 0.5-3.6 0.3-6.5 0.6-7.9 0.7-6.1 0.6-9.8 1-14.5 2-2.1 0.4-3.2 0.6-4.2 0.9-1.2 0.3-2.3 0.5-3.5 0.9-0.1 0-0.3 0.1-0.7 0.1-0.2 0.1-0.5 0.1-1 0 0 0-0.6-0.1-1.1-0.4-1.1-0.7-1.5-2.2-1.3-3.5 0.2-0.6 0.5-1 0.6-1.2 0.7-0.9 1.7-1.2 2-1.3q0.2 0 0.6-0.1c0.1-0.1 2.1-0.7 4.1-1.3 0.8-0.2 3.4-0.9 6.4-1.7 5-1.2 9.2-1.9 10.8-2.2 4.8-0.8 8.2-1.1 14.1-1.7 6.2-0.5 11.1-0.8 13.8-0.9 4.8-0.3 10.6-0.5 12.5-0.6 1.7-0.1 2.4-0.1 3.7-0.2 2.1-0.1 2.5-0.2 3.5-0.2 0.6 0.1 1.1 0 2.2 0q0.2 0 0.5 0c0.5-0.1 1-0.1 1.6-0.5 0.2-0.2 0.4-0.3 0.4-0.4 2.5-2.6 5.9-6.6 5.9-6.6 0.2-0.2 1-1.1 2.5-2.8 6.5-7.1 6.5-6.8 7.8-8.5 1.1-1.4 2.3-2.8 3.4-4.1 0.3-0.5 0.9-1.1 1.7-1.9 0.9-0.8 1.7-1.4 2.5-1.8 0.4-0.2 0.6-0.3 0.9-0.4 0.2-0.1 1.4-0.5 2.7-0.1 1.2 0.4 1.8 1.4 2.2 2 1 1.8 0.8 3.7 0.6 4.3-0.3 1.7-1.3 2.8-1.7 3.2-0.7 0.7-2 2-3.5 3.6-2.4 2.5-3.8 4.1-8.3 9-0.8 0.9-2.1 2.3-3.7 4q-0.3 0.5-0.5 0.9c0.6 0 1.6 0.1 2.9 0.1 3.2 0 5.1-0.1 7-0.1 2.9 0 5 0 7.6 0.2 3.3 0.2 7.5 0.5 12.4 2.4 0.8 0.4 2.2 0.8 3.7 1.8 1.2 0.7 2.1 1.2 2.9 2.1 1.8 2.1 2.1 4.4 2.2 5.1 0.1 1.1 0.2 2.3-0.4 3.5-0.7 1.5-2.1 2.2-2.6 2.5-0.5 0.2-1.3 0.6-2.4 0.4-1.2-0.1-2.4-0.8-2.9-1.8-0.1-0.2-0.1-0.1-0.3-0.5-0.4-0.8-0.7-1.4-1.3-1.9-0.7-0.6-1.4-0.8-2.1-1-0.5-0.2-1-0.3-1.2-0.3-10.1-1.3-12.6-1.5-12.6-1.5-2.9 0-3.3-0.4-5.4-0.6-3.3-0.2-5.3-0.3-5.8-0.3-1.9-0.1-3.4 0-4.5 0q-0.2 0-0.4 0c-0.4-0.1-0.8-0.2-0.9-0.3-0.6-0.2-1.7-0.3-2-0.3-1.6-0.1-2.9 0.8-3.2 1-0.5 0.3-0.9 0.7-1.2 0.9-0.7 0.9-1.8 2.3-3.1 3.9-1.3 1.5-2.2 2.6-3.8 4.5-4.8 5.8-4.7 5.7-4.7 5.8-2.4 2.9-5 6.1-7.5 10.5-0.9 1.7-2.3 4.2-3.6 7.4 0.5-0.1 1.1-0.3 1.8-0.6 2.4-0.9 4.1-1.8 4.8-2.1 2.5-1.3 6.6-3.5 9.2-4.7 3.5-1.7 5.3-2.6 7.9-3.4 3.7-1.1 7.5-1.6 8.4-1.6 0.1 0 0.5 0 0.9-0.1 0.6-0.1 1.1-0.3 1.3-0.4 0.2-0.1 0.3-0.2 0.3-0.3 0.6-0.4 2.1-1.1 3.3-1.5 2.3-0.8 5.1-1 6.1-1 0 0 3.7-0.3 7.4 0.4q0.2 0.1 0.6 0.2c2.1 0.6 3.3 2.2 3.5 2.4 1.6 2.1 1.3 4.5 1.2 5.2-0.1 0.5-0.4 2.6-2.1 4.1-1.1 1-2.3 1.4-2.7 1.5-1 0.4-1.7 0.6-2.4 0.5-0.2 0-0.5 0-0.9 0.1-0.4 0.2-0.7 0.4-0.9 0.6q0.4 0 1.2 0c3.9 0 7.6-0.4 12.1-1.3 1.7-0.4 3.4-0.8 9.1-2.3 3.2-0.8 7.3-1.9 12.7-3.5 1.6-0.5 3.1-0.9 5.8-1.7 0.6-0.2 3.4-1 7-1.9 1.9-0.4 2.9-0.7 4.1-0.8 0.4-0.1 1.7-0.1 4.3-0.2 0.3 0 0.8 0 1.4 0.1 1 0.3 1.6 0.8 1.7 1 0.7 0.6 0.9 1.2 1.2 2.1 0.2 0.5 0.5 1.3 0.6 2.2 0.3-0.3 0.8-0.8 1.3-1.4 0.6-0.8 1.3-1.7 2.2-3.2 1.8-2.9 3.3-6.4 3.7-7.3q0.2-0.2 0.4-0.6c0.2-0.4 0.9-1.4 2.2-2 0.3-0.1 1-0.4 1.9-0.3 1.4 0.1 2.4 1.1 2.6 1.3 0.5 0.5 0.7 1.2 0.8 1.3q0.1 0.3 0.1 0.5c0.2 0.5 0.4 1.7 0.4 2.4 0.1 0.8 0.5 1.6 1.1 2.3 0.4 0.5 0.8 0.7 0.9 0.8 0.6 0.4 1.1 0.5 1.5 0.6 1.5 0.5 3 0.6 3.4 0.6 2.7 0.1 3.7 0.1 3.7 0.1 2.7 0 4.8-0.1 5.1-0.1 2-0.1 4.6-0.2 8.1-0.6 1.5-0.1 2.3-0.2 3.9-0.4 0.3 0 2.2-0.1 4.6 0.1 0.7 0 0.9 0 1.1 0.1 1.7 0.4 2.7 1.8 3 2.3 0.3 0.4 1.3 1.8 1.2 3.8 0 0.4-0.2 2.1-1.4 3.5-1.3 1.5-3.1 1.9-4.1 2.1-0.7 0.1-1.4 0.2-1.9 0.2-1.4 0.1-2.4-0.1-3.1-0.1-0.8-0.1-2.1-0.2-4.8-0.4-1.6 0-2.9 0-5.7 0-4.3 0-5 0.2-7.7 0-1.8 0-2.7-0.1-4-0.3-3-0.4-5.2-1.3-6.5-1.9-0.8-0.3-1.4-0.6-1.9-0.9q-0.2-0.1-0.5-0.2c-0.3 0-0.5-0.1-0.9 0-0.4 0.1-0.6 0.4-0.8 0.5-0.9 1-2 2.6-2.6 3.5-0.2 0.2-0.4 0.5-0.9 1.1-0.9 1.2-1.5 1.8-3.4 4.1-2.1 2.3-2.5 2.8-3.3 3.5-0.8 0.8-1.3 1.1-1.9 1.5-0.6 0.3-2.3 1.2-4.5 0.9-0.7-0.1-1.8-0.3-2.9-1.1-1.6-1.3-2-3.1-2.1-3.5-0.4-1.9 0.2-3.8 0.3-4.2 0 0 0.1-0.2 0.1-0.4 0-0.4 0-0.8-0.1-1q-0.3 0-0.9 0c-0.9 0.1-1.6 0.3-2 0.4-1.8 0.6-2.4 0.8-3.1 1-0.3 0.1-0.4 0.1-2.6 0.7q-2.8 0.8-2.8 0.8c-8.7 2.5-13.1 3.7-16.7 4.5-4.7 1-3.8 0.6-11.7 2.1-1.5 0.3-3.9 0.8-7.2 1-1.3 0.1-2.4 0.2-3.6 0.1-1 0-2.6-0.1-4.6-0.6-1.3-0.3-3.2-0.8-5.2-2.2-2.5-1.7-3.9-3.8-4.4-4.7-0.2-0.3-0.7-1.3-1.3-2.5 0-0.1 0-0.4-0.2-0.6-0.1-0.1-0.3-0.5-0.6-0.7-0.4-0.2-0.9-0.1-1.3 0-2 0.4-3.7 1-4.6 1.3-0.7 0.3-0.6 0.3-0.8 0.3-3.4 1.3-8.4 4-8.7 4.1-7.2 3.9-7.1 3.9-7.8 4.2-2.9 1.4-5.1 2.3-7.7 2.8-1.1 0.2-3.2 0.6-5.5 0-1.2-0.2-1.9-0.6-2.4-0.9-0.5-0.3-1.7-1-2.4-2.6-0.5-1.1-0.5-2.2-0.4-3.1 0-0.4 0-1.6 0.5-2.9 0.1-0.4 0.3-1.1 0.5-2 0-0.1 0.1-0.4 0.1-0.8 0-0.1-0.1-0.3-0.2-0.5-0.2-0.2-0.6-0.2-0.7-0.2-1.4 0.1-3.4 0.6-3.5 0.6q-0.6 0.1-1.2 0.3c-3.2 0.6-4.7 0.9-5.8 1.2-4.8 1.1-9.6 2.5-9.6 2.5-5.6 1.3-9.2 2.9-14.2 4.8 0 0-1.9 0.7-4.4 1.9-0.7 0.3-1.7 0.8-3 1.6-0.4 0.3-0.4 0.3-0.8 0.5-1.9 1.2-3.4 1.7-4.7 2.2-0.6 0.1-0.9 0.2-1.2 0.2-0.3 0.1-1.2 0.2-2.1 0-1.5-0.4-2.3-1.5-2.5-1.8-1.7-2.3-0.7-5.5-0.5-6.1 1-3.2 3.7-4.7 4.4-5.1-0.7-0.1-1.7-0.3-2.9-0.6-2.6-0.5-2.5-0.4-3.2-0.6-0.3-0.1-3.1-0.7-4.3-1.3-0.1-0.1-0.3-0.2-0.6-0.3 0 0-0.6-0.2-1.3-0.2-0.9 0-1.6 0.3-1.9 0.4-2.1 1-4.2 1.9-6.2 2.9-0.9 0.4-0.9 0.4-2.4 1-2 0.9-3.5 1.6-7.7 3.6-3.9 1.9-3.7 1.9-3.8 1.9 0 0-5.2 2.1-11.3 2.2-0.6 0-1.2-0.1-1.6-0.2-0.5 0-1.3-0.2-2.2-0.6-1.7-0.9-2.5-2.5-2.7-2.8-0.1-0.2-0.6-1.4-0.6-2.6 0-0.3-0.1-0.6-0.1-1.1 0-0.3-0.1-0.6-0.3-1.1 0-0.1-0.1-0.2-0.1-0.3-0.4-0.3-1.1-0.1-1.5 0-2.2 0.7-11.2 4.6-11.7 4.8-1.1 0.5-2.8 1.1-3.9 1.5-0.5 0.2-1.1 0.4-1.1 0.4-0.8 0.2-1.5 0.4-1.8 0.5-1.8 0.5-3.6 0.3-3.7 0.3-1-0.2-2.3-0.3-3.6-1.2-0.4-0.2-1-0.6-1.6-1.4-0.4-0.7-0.8-1.5-1-2.1 0-0.2-0.1-0.4-0.2-0.6-0.2-0.6-0.3-0.7-0.4-0.8-0.1-0.1-0.3-0.3-0.7-0.3q-0.1 0-0.2 0c-0.8 0.3-1.1 0.5-1.1 0.5 0 0-1.8 1.2-2.7 1.8-0.2 0.1-0.6 0.3-1.2 0.7-1.7 1-2.5 1.4-3.3 1.9-1.1 0.5-2.6 1.3-4.7 1.9-0.7 0.2-1.3 0.4-2.1 0.5-1.1 0.2-3 0.5-5.1-0.1-0.7-0.2-1.9-0.6-3-1.6-1.9-1.8-2.2-4.4-2.2-5.2 0-0.3 0-0.5 0-0.9-0.1-0.9-0.2-1.2-0.2-1.4-0.2-0.2-0.3-0.5-0.6-0.7-0.1-0.1-0.3-0.1-0.5-0.2-0.8 0-1.7 0.3-2.1 0.4 0 0-11.6 3.6-16.4 6.1 0 0-3.2 1.3-4.2 1.7-0.5 0.2-7.1 1.7-9.4-1-1.1-1.3-1.2-2.5-1.2-2.5-0.1-0.9-0.1-1.4-0.1-1.4 0-0.7 0.1-1-0.1-1.5-0.1-0.1-0.3-0.5-0.7-0.6-0.2-0.1-0.4-0.1-0.5 0-1 0.2-1.4 0.3-2.1 0.8-0.9 0.6-5.8 2.8-15 6.7-1.3 0.4-2.5 0.7-3.3 0.9-3.5 0.8-4.8 0.8-5.3 0.7-1.1 0-2-0.3-2.5-0.4-1.2-0.5-2.5-1.6-3.2-3.1 0 0-0.8-1.7-0.7-3.7 0.1-1 0.1-1.2 0.1-1.2 0.1-0.8 0.2-1.2 0.1-1.9 0-0.4 0-0.6-0.2-0.8-0.5-0.6-1.9-0.3-2-0.2q-6.8 1.3-14.3 3.3c-8.8 2.3-9 1.7-16.5 4.9-3.3 1.4-6 2.9-7.7 3.9q-0.3 0.1-0.8 0.3c-0.4 0.3-1.3 0.6-2.3 0.6-1.7-0.1-2.8-1.2-2.9-1.3-0.7-0.7-0.9-1.5-1.2-2.3-0.2-0.7-0.5-2.3-0.1-4.2-0.7 0.2-1.7 0.6-2.8 1.2-0.8 0.4-1.5 0.7-2.3 1.4-1.4 1.2-2 2.4-2.2 2.7-0.2 0.6-0.4 1-0.4 1.2-1.1 3.3-3.9 7.2-4.5 8.1-0.7 0.8-1.3 1.7-3 3.5-2.8 3.2-6 6.8-11 11.3-4 3.7-5.5 4.6-7.1 5.3-1.3 0.6-3.2 1.7-5.7 1.6-0.5 0-1.4-0.1-2.4-0.5-2.2-1-3.2-3.1-3.4-3.6-1.5-3.5 0.1-7.1 0.5-8.2 0.2-0.4 0.4-0.7 0.7-1.4 0.1-0.3 1.3-2.5 2.6-4.4 2-3.1 4.5-5.6 5.5-6.6 1-1 2.6-2.5 4.6-4.2 3.5-2.9 3.4-2.4 7.6-5.7 2.1-1.7 4.4-3.2 6.6-4.9q0 0 0.2-0.1c0.2-0.2 0.4-0.2 0.5-0.2 0.2-0.1 0.6-0.3 0.7-0.5 0.2-0.4 0-1-0.3-1.4-0.6-0.6-1.7-0.5-2.8-0.3-3.3 0.7-5.2 1.7-5.2 1.7 0 0-2.1 1.1-8.7 4.3-2.8 1.3-2 0.8-7.2 3.2-2.9 1.3-3.6 1.7-5.1 2-2.3 0.6-4.3 0.7-5.9 0.7-2.1 0-3.1 0-4-0.3-2.6-1-4.1-3.6-4.4-5.2 0-0.3-0.1-1.1-0.2-2.2q0-0.8 0-1.3c-2.3 0.5-4.1 1.1-5.2 1.5-1.8 0.7-2.5 1.1-7.9 3.5-2.5 1.1-3.4 1.4-4.7 1.8-3.3 1.1-4.8 1.1-5.2 1.1-1.2 0-2.8-0.1-4.4-1.1-2.2-1.4-3.3-3.8-3.4-5.4 0-0.2 0-1-0.1-2.2 0-0.1 0.1-0.6-0.1-1.4 0-0.3-0.1-0.4-0.1-0.5-0.3-0.5-0.9-0.6-1.1-0.7-1.6-0.4-7.7 0-10.1 0.1-1.5 0-2.6-0.1-3.2-0.1-2.6-0.2-4.5-0.7-6.3-1.2-1.7-0.5-2.7-0.7-3.3-1.2-0.5-0.4-0.7-0.6-1.2-0.8-0.3-0.1-0.5-0.2-0.7-0.2-0.5 0-0.9 0.3-1.1 0.4-0.1 0.2-0.4 0.6-0.7 1-1.1 1.5-1.8 2.6-2 2.8-0.6 1-2.4 3.2-7.7 8.8q-0.3 0.2-0.7 0.6c-0.4 0.2-1.4 0.9-2.6 1.3-1 0.3-2.3 0.8-3.9 0.4-2.3-0.7-3.4-2.8-3.5-3.1-0.4-0.8-0.4-1.4-0.6-2.5-0.1-1.3-0.1-2.4 0-3.2q-6.3 8.2-13.2 16.7c-1.9 2.3-4.7 5.7-8.3 9.8-4.2 4.9-10 11.4-17.2 18.8-0.4 0.4-1.4 1.6-3.2 2.8-1.3 0.9-2.8 1.9-4.8 2.2-4 0.5-7-2-7.2-2.2-1.6-1.4-2.3-3.2-2.6-3.9-0.2-0.5-0.4-1.1-0.6-2.2-0.1-0.3-0.7-2.6-1-4.6-0.7-5.2-0.4-12-0.4-12.5 0.2-3.7 0.5-6.4 1-10.2 1.2-10.1 1.8-15.2 2-17 0.7-5.8 1.6-12.9 2.7-21q0-0.5-0.1-0.9c0-0.3-0.1-0.7-0.3-0.7-0.1-0.1-0.3 0-0.4 0.1-0.3 0.3-0.9 0.8-1 0.9-1.4 1.7-3 3.3-4.4 5-0.9 1.2-1.9 2.2-2.8 3.3-5.1 5.9-7.6 8.9-9.2 10.8-3.8 4.6-6.7 8.1-8.7 10.6-2.2 2.8-4.3 5.4-10.9 14-5.5 7-7 9.1-12 15.5-4.7 6.1-8.5 11-13.3 17.1 0 0-6.3 8.1-15.5 19.4 0 0-4.6 5.6-13.4 14.3-0.2 0.2-0.6 0.6-1.2 1.1-0.8 0.6-1.9 1.5-3.4 2.2-0.9 0.4-2.1 0.9-3.7 0.8-2.5-0.2-4.1-1.8-4.5-2.2-1-1-1.5-2.2-1.9-3.6-1-3.1-1.2-6.4-0.6-11.3 0.1-0.7 0.3-2.6 1.4-7.5 0.9-4.5 1.8-8.1 2.6-11 1.6-6.1 3-10.7 4.1-14.5 1.5-4.8 2.8-9 3.9-12.3 1.2-3.8 4.8-14.7 10.2-29.1 3.5-9.2 6-15.2 10.7-26.8 0 0 4.2-10.4 8.1-18.2 2.1-4.1 2.3-3.8 4.1-7.7 0.3-0.5 1-2 2.2-3.8 1-1.5 2.1-2.8 3.8-3.7 0.8-0.4 1.4-0.6 1.9-0.6 1 0.1 1.8 0.6 2.2 0.9 1.2 0.9 1.8 2 2.1 2.6 0.4 0.9 1.2 2.4 0.8 4.3-0.3 1.4-1.3 2.6-1.5 2.9q-0.3 0.4-0.5 0.5c0 0-1.1 1.3-2.9 3.6-1.8 2.6-3.4 6.1-3.4 6.1-5.2 11.3-8 18.4-8 18.4-3.5 8.8-2.9 6.7-6.6 16-1.1 2.8-4 10.1-7.6 20.1-3.3 9.1-7.4 20.5-11.9 35.5-1.9 6.7-4.4 15.6-7 26.3q0 0.1 0 0.3c0 0.2 0.1 0.4 0.1 0.5q0.1 0.2 0.2 0.5 0.3-0.2 0.8-0.4c0.7-0.4 1.7-1.1 2.7-2 0.8-0.7 1.4-1.3 1.8-1.7 7.8-8.5 18.6-22.4 18.6-22.4 1.1-1.6-0.2 0.1 8.1-10.3 5.4-6.8 9.9-12.5 15.6-19.7 4.2-5.4 7.9-10.2 12.9-16.7 4.9-6.3 7-9.2 11.5-14.9 4.9-6.1 7.3-9.3 9.9-12.1 5-5.6 9.6-9.8 12.9-12.6q0.4-0.2 0.9-0.5c1.2-0.8 2.2-1.1 2.5-1.2 0.7-0.3 1.1-0.4 1.7-0.5 0.3-0.1 1.7-0.3 3 0.3 2.7 1.1 3.4 4.4 3.6 5.2 0 0.2 0.1 0.4 0.2 1.3 0.4 3.1 0.4 5.6 0.4 6.4 0 2.1-0.1 5.8-0.7 10.6-0.1 1.4-0.1 1.3-0.5 4.3-0.1 0.7-0.8 5.5-1.4 10.9-0.6 5-0.9 8.7-1.3 12.6-0.4 4.9-0.7 8.4-1 13.2-0.2 3.6-0.3 6.5-0.4 8.6q0 0.1 0 0.3 0 0.3 0.1 1c0.1 0.3 0.1 0.5 0.2 0.6 0.1 0.2 0.2 0.2 0.2 0.3 0.2 0.1 0.4 0.1 0.5 0 0 0 0.1 0 0.3-0.1 0.2-0.1 0.4-0.2 0.7-0.5 0.2-0.2 0.1-0.1 0.3-0.3 0.6-0.5 0.9-0.7 1.4-1.2 1-1 3.5-3.1 5.5-4.9 2.5-2.3 4.3-4.2 6.3-6.2 2.3-2.3 5.9-5.9 10.1-10.8 1.2-1.4 2.6-3.1 5.4-6.5 1.6-2 4.1-5.1 7.2-9 2.3-2.9 4-5.1 5.5-7.1 1.2-1.4 3.1-3.9 5.5-7.1 2.8-3.7 4.9-6.5 6.7-8.9 2.6-3.4 3.9-5.2 5.3-7.1 3.1-4.3 5.4-7.7 6.3-9 0.5-0.7 2.7-3.9 5.5-8.3 1.2-1.9 2.6-4.1 4.3-6.9 1.7-2.7 3-5.1 5.7-9.7 1.8-3.1 4.1-7.1 6.3-11.5 0.8-1.4 1.5-3 2.3-5 0.7-1.9 1.4-3.9 1.6-4.4q0.3-1.1 0.5-1.8 0.1-0.1 0-0.4c0-0.1 0-0.3-0.2-0.7-0.1-0.2-0.2-0.2-0.6-0.6-0.7-0.6-0.8-0.8-1-1q-0.2-0.3-0.2-0.5c-0.6-1-0.7-2.1-0.7-2.6 0-0.3 0.1-0.6 0.1-1.2 0.1-0.8 0.2-1.3 0.2-1.6 0.1-0.3 0.2-0.4 0.2-0.6 0.1-0.3 0.3-0.8 0.7-1.3 0.6-0.7 1.3-0.9 1.5-1 1.3-0.5 2.4-0.1 2.9 0 0.5 0.2 1 0.5 1.7 1.1 0.7 0.5 1.8 1.6 2.8 3.6 0.4 0.7 1.6 3.2 1.7 6.6 0 1.5-0.2 2.6-0.4 4.2-0.5 2.7-1.2 4.7-1.7 6.3-0.6 1.7-1.2 3-1.6 4-0.2 0.5-1 2.2-2.5 5-0.7 1.4-1.3 2.3-3.1 5.5-2.1 3.6-3.2 5.4-3.6 6.2-2.1 3.5-3.8 6.2-4.9 7.9-1 1.8-1.9 3.1-3 4.9-2.2 3.4-3.9 5.9-6.2 9.4-1.8 2.6-2.9 4.3-4.6 6.6 0 0-3.4 4.8-7.3 10.1-2.1 2.8-3.1 4.2-3.2 4.3 0 0.1-0.2 0.3-0.4 0.6-0.2 0.3-0.5 0.7-0.5 1.4-0.1 0.5 0.1 0.9 0.3 1.4 0.1 0.3 0.1 0.4 0.3 0.9 0.2 0.4 0.2 0.6 0.3 0.9 0 0.2 0 0.7-0.1 1.2q0.3-0.1 0.7-0.5c0.7-0.5 1.3-1.1 1.9-1.9 0.4-0.5 0.7-1.1 1.6-2.7 0.3-0.5 0.9-1.6 1.7-3.1 1.1-2.3 1.7-3.4 1.7-3.5 0.2-0.2 0.4-0.8 0.8-1.4 0.2-0.3 0.6-0.8 1.1-1.1 0.2-0.1 0.9-0.6 2-0.7 0.4 0 1.1-0.1 1.9 0.3 0.8 0.4 1.2 0.9 1.5 1.4 0.8 1.1 0.9 2.2 1 2.5 0 0.1 0 0.5 0 1 0.1 0.4 0.1 0.4 0.1 0.6 0 0.3 0 0.9 0.4 1.5 0.2 0.4 0.5 0.7 0.9 1 1.7 1 3.5 1.3 3.5 1.3 4.5 0.5 8.2 0.4 8.2 0.4 1.7-0.1 3.2-0.2 5.7-0.4 2-0.2 2.9-0.3 4.6-0.3 2-0.1 1.9 0 3.5-0.1 0.5 0 2.4-0.1 5-0.5 1-0.1 1-0.1 3.2-0.5 2.3-0.4 3.4-0.6 4.2-0.7 0.8-0.1 3.4-0.4 6.8-0.1 1.8 0.2 3.1 0.3 4.8 0.8 1.5 0.4 3.2 1.2 3.9 1.7 0.1 0 0.5 0.3 1.1 0.7q0.3 0.1 0.6 0.3c0.7 0.2 1.2 0.2 1.4 0.2 0.9 0.1 2.4 0.4 3.4 0.8 0.6 0.2 1.8 0.7 2.7 1.9 0.2 0.3 0.7 0.9 1 1.9 0 0.4 0.1 0.6 0.1 1 0.1 0.2 0.1 0.8 0.2 1.7 0 0.6 0 1.5-0.2 2.5 0.7-0.1 1.6-0.2 2.7-0.5 1.5-0.4 2.6-0.8 3.6-1.2 2.4-1.1 3-1.5 7.7-3.8 1.1-0.6 1.9-1 3.5-1.8 2.3-1.1 2-1 2.7-1.4 3.1-1.5 5.1-2.1 5.9-2.3 0.9-0.2 1.5-0.3 1.7-0.4 0.8-0.1 2.1-0.4 3.6-0.2 3.2 0.3 5.4 2.4 5.9 2.8 0.7 0.7 1.2 1.1 1.6 1.9 0.2 0.2 0.5 0.8 1 1.5 0.4 0.5 0.6 0.7 0.8 0.8 0.2 0.1 0.7 0.4 1.3 0.4 0.3 0 0.6-0.1 0.8-0.2 0.7-0.3 1.3-0.6 2-1q0.6-0.3 1.1-0.6c1.5-0.8 2.8-1.4 4.5-2 0.6-0.3 1.4-0.6 2.5-0.9 1.2-0.4 2.4-0.9 4-1.2 1.2-0.3 2.9-0.7 5.1-0.8 0.9 0 1.3 0 1.5 0 2 0.2 3.3 1 3.6 1.2 0.8 0.6 1.4 1.1 2 1.8 0.4 0.5 1 1.2 1 1.3 0.4 0.4 0.5 0.7 0.6 0.8q0.1 0.1 0.3 0.4c0.1 0.1 0.2 0.2 0.3 0.3 0.4 0.2 0.8 0.2 0.9 0.1 0.1 0 0.3 0 0.6-0.1 0.2-0.1 0.5-0.2 0.5-0.2 0.7-0.3 2.5-0.8 4-1.2 0.2-0.1 0.3-0.1 0.5-0.2 1-0.2 1.6-0.4 1.8-0.5 0.4-0.1 2.4-0.7 6.5-1.9 0.7-0.2 3.5-1 7.1-2 1-0.3 2-0.6 3.3-0.7 2.1-0.3 3.7-0.2 4.1-0.2 0.6 0.1 1.9 0.2 3.5 0.7 1 0.3 1.4 0.5 1.6 0.6 0.3 0.3 1.4 0.9 1.8 2.2 0.3 0.6 0.3 1.3 0.3 1.7 0 0.7-0.1 1.2-0.1 1.4-0.1 0.5-0.2 0.9-0.2 1-0.2 0.7-0.6 1.9-1.1 3.9q8.7-3.6 17.4-7.1 0.7-0.4 1.8-0.8c0.4-0.2 1.1-0.5 1.9-0.8 0.7-0.2 1.7-0.5 2.9-0.8 1-0.2 2.4-0.5 4.1-0.4 1 0 1.7 0.1 2.4 0.2 0.3 0.1 0.6 0.2 1 0.3 0.5 0.2 1.3 0.5 2 1.2 0.7 0.7 1.1 1.7 1.2 2.4 0.2 1 0.2 1.2 0.2 1.2 0.1 0.3 0.1 0.5 0.2 0.8q0.1 0.4 0.2 0.6 0.1 0.1 0.1 0.2c0.1 0.2 0.3 0.2 0.3 0.3 0.2 0 0.4 0.1 0.8 0 0.3 0 0.5-0.1 1.2-0.4 0.9-0.3 0.2 0 0.7-0.3 1.3-0.6 2-0.8 2.2-0.9 1-0.5 2-0.9 3.5-1.5 2.9-1.1 4.6-1.8 6.9-2.3 2.5-0.6 4.5-0.7 5-0.8 2.6-0.1 4.7 0.1 6.2 0.4q0.2 0 0.4 0.1c0.2 0.1 0.8 0.3 1.5 1 0.8 0.9 1.3 1.9 1.4 2.3 0 0 0.4 1 0.6 2.6 0 0.3 0 0.5 0 0.5 0 0.3 0 0.4 0 0.6 0 0.1 0 0.7 0.1 1.4 0.1 0.2 0.1 0.4 0.3 0.5 0.1 0.1 0.3 0.1 0.4 0.1 0.4 0.1 0.6-0.1 0.7-0.1 1.1-0.6 2.3-1.1 3.3-1.7q0.9-0.5 1.7-1c1.6-0.9 2.9-1.6 5.5-3 1.9-1.1 2.9-1.6 3.1-1.7 2.3-1.2 4.1-1.8 6.3-2.7 1.6-0.6 3.2-1.2 5.4-1.8 1.6-0.5 3.4-1 5.7-1.3 0.9-0.2 3-0.5 5.4-0.5 2.2 0 5.8 0.3 10.2 1.9 0.2 0.1 0.3 0.1 0.3 0.1 0.5 0.3 0.8 0.5 0.9 0.7 0.3 0.2 0.3 0.3 0.5 0.5 0.3 0.2 0.6 0.4 0.6 0.4 0.5 0.2 0.9 0.3 1.2 0.3 0.2 0 0.2 0 0.5 0 0.5 0.1 0.8 0.1 1.3 0.2 0.8 0.1 1.1 0.2 1.6 0.3 0.5 0.1 1 0.3 1.6 0.6 0.3 0.1 0.9 0.4 1.5 1 1.3 1.2 1.5 2.8 1.7 3.5 0 0.4 0 0.7 0 1.2 0.1 1.3 0 2.3-0.1 3 0.3 0 0.9-0.2 1.6-0.4 3.7-0.9 6.4-2.2 8.6-3.3 1.5-0.7 3.2-1.6 3.7-1.8 0.8-0.5 1.2-0.7 1.7-0.9 0.8-0.5 3.2-1.7 6.2-3 0 0 2.5-1.1 5.3-2q0.5-0.1 1.2-0.3c0.4 0 0.7-0.1 1 0 1.3 0 2.3 0.6 2.8 0.9 0.2 0.2 0.1 0.1 0.4 0.4 1.2 0.8 2.2 1.3 2.4 1.4 1 0.4 1.7 0.6 2.7 0.8 0.9 0.2 1.3 0.2 3.6 0.5 0.5 0.1 1.6 0.3 2.9 0.5 2.1 0.3 3.1 0.5 4.1 0.7 0.9 0.2 2.1 0.6 3.5 1.3q0.2 0 0.4 0.2c0.1 0.1 0.3 0.2 0.7 0.7 0.3 0.3 0.4 0.5 0.5 0.6 0.2 0.3 0.2 0.4 0.5 0.7 0.1 0.2 0.2 0.4 0.3 0.4 0.4 0.3 0.9 0.3 1.1 0.2 0.4-0.2 0.3-0.2 1-0.4z"/><path class="a" d="m751.1 293.8c1-0.4 1.8-0.4 2.6-0.5 1.1 0 2.2 0 3.4 0.6 0.3 0.2 1 0.5 1.5 1.3 0.2 0.1 0.7 0.8 1 2.2 0.2 1.2 0.6 2.8-0.2 4.5-0.2 0.4-0.7 1.5-1.9 2.3-1.1 0.7-2.3 0.8-3.1 0.8-1 0.1-2.3 0.1-3.5-0.6-2.4-1.3-2.6-4.4-2.6-4.8-0.1-0.5-0.2-3.1 1.5-4.8 0.5-0.6 1.2-0.9 1.3-1z"/><path class="a" d="m745.6 313.7c-23.4-0.8-28.2-0.5-28.2-0.5-13.1 1-26.3 0.3-39.4 0.7-32.5 1-23 0.4-72 1.7-30.8 0.8-46.1 1.2-63.9 1.9-17.5 0.7-44.6 1.7-79.2 4-10.8 0.8-51.1 3.5-104.4 9.1-20.7 2.2-45.8 4.9-79.2 9.5-19.3 2.7-43.3 6.1-74.9 11.9-61.2 11.3-95.5 21.4-108.8 25.5-2.7 0.9-8.3 2.2-15.5 5-5.8 2.2-10.5 4.4-14 6.2-0.4 0.3-1 0.6-1.6 1.1-0.5 0.5-1.3 1.2-1.8 2.3-0.2 0.6-0.7 1.5-0.5 2.7 0 0.3 0.2 1.3 1.3 2.6 1.7 1.8 4 2.3 4.8 2.5 8.7 1.8 20.2 1.4 21.1 1.4 2.8-0.1 4.2-0.2 5.3-0.2 22.5-1.4 36.5-3.1 36.5-3.1 3.3-0.4-6.1 0.8 72.3-6.4 49.1-4.5 46.6-4.4 73.8-6.9 48.7-4.4 73-6.6 104.3-8.8 32.6-2.2 58.1-3.4 77.4-4.4 23.5-1.1 45.1-2.1 74.5-2.8 17.7-0.4 42-1 74.3-0.6 26.6 0.2 44.8 1 73.9 2.2 1.4 0 19.5 0.8 43.2 2.7 15.3 1.3 27 2.5 41.4 5.9 6.6 1.6 12.1 3.2 15.8 4.5-4.8 1.1-11.7 2.7-20.2 4.1-13.4 2.3-23.9 3.1-38.3 4-21.2 1.4-37.4 2.1-41.2 2.3-47.9 2.2-50.4 2.8-82.4 4-16.6 0.7-30.1 1-38.4 1.2-0.9 0-1.6 0.2-2 0.3-0.7 0.1-1 0.2-1.4 0.5-0.2 0.1-0.8 0.6-1 1.5 0 0.1 0 0.3-0.1 0.7 0 0.7 0 1.2 0 1.7 0.1 0.4 0.2 1.1 0.6 1.6 0.7 0.9 1.9 1 2.2 1 1.8 0.1 4.5 0.1 7.7 0.2 14.9 0.1 25.9-0.5 31.5-0.8 14.3-0.8 11.3-0.2 38.3-1.2 27.8-1 47.5-2.2 74.9-3.8 22.8-1.4 32.6-2.2 45.4-3.8 22.4-2.8 20.4-3.5 29.2-4.5 0 0 2.2-0.3 5.1-1.1 4.6-1.4 6.4-2.9 7-3.5 0.9-0.8 2-1.8 2.4-3.6 0.4-1.6 0-2.9-0.1-3.4-0.7-2-2.2-3-3.3-3.8-1.6-1.1-3-1.5-3.5-1.7-8-2.4-16.8-3.9-16.8-3.9-5.2-0.9-2.5-0.6-9.3-1.7-6.4-1.1-17.6-3-32.4-4.6-10.1-1.1-17.4-1.6-31.8-2.5-18.7-1.2-33-1.7-36.6-1.9-11.6-0.4-37.3-1.3-73-1.2-25.1 0.1-42.6 0.7-74.4 1.6-19.6 0.6-43 1.4-73.5 2.8-49 2.3-88 5.2-108.8 6.8-36.1 2.8-62.9 5.5-108.6 10-23.6 2.4-47.3 4.3-70.9 6.9-8.2 0.9-18.2 2-32 2.9-18.5 1.2-33.7 1.2-43.9 1 1.1-0.4 2.9-1.2 5.1-2 0 0 5.2-2 11.4-4 16.2-5.2 34.8-9.7 34.8-9.7 14.1-3.5 26.2-6.3 35.7-8.4 4.4-0.9 18.7-4 34.3-7 28.3-5.5 53.4-9.2 73.3-11.9 34.6-4.7 84.5-10.7 148.2-16.1 38.2-3.2 67.3-5 75.9-5.5 48.9-3 83.1-3.8 148.7-5.4 0 0 18.4-0.5 44.7-0.6 0 0 36.2 0 49 1.1 0.6 0 4.4 0.4 9.4 0.5 0.7 0.1 1.2 0.1 1.6 0.1 0.1 0 0.4-0.1 0.8-0.2 0.2 0 0.8-0.3 1.2-0.8 0.2-0.4 0.3-0.7 0.4-1.1 0-0.5 0.2-1.6-0.3-2.4-0.3-0.3-0.5-0.5-0.8-0.7-2.6-1.8-2.1-1.6-2.7-1.9-1.7-0.9-3.2-1.2-4.2-1.4-1.7-0.4-3-0.4-3.4-0.4z"/></svg>